<?xml version="1.0" standalone="no"?><!DOCTYPE svg PUBLIC "-//W3C//DTD SVG 1.1//EN" "http://www.w3.org/Graphics/SVG/1.1/DTD/svg11.dtd"><svg xmlns:xlink="http://www.w3.org/1999/xlink" xmlns="http://www.w3.org/2000/svg" font-family="Myriad Pro, Helvetica, Arial" font-size="12" data-jsgraph-version="v2.2.36" tabindex="0" width="580" height="405.4"><defs><clipPath id="_clipploteaf871d7-7f6b-470d-b64a-4d365f09c7b8" clipPathUnits="userSpaceOnUse"><rect y="0" x="23.350000381469727" width="516.6499996185303" height="338.4"/></clipPath><marker xmlns="" viewBox="0 0 10 10" id="arroweaf871d7-7f6b-470d-b64a-4d365f09c7b8" refX="6" refY="5" markerUnits="strokeWidth" markerWidth="8" markerHeight="6" orient="auto"><path xmlns="http://www.w3.org/2000/svg" d="M 0 0 L 10 5 L 0 10 z"/></marker><marker viewBox="0 0 6 8" id="horionzalsplit_eaf871d7-7f6b-470d-b64a-4d365f09c7b8" refX="3" refY="4" markerUnits="strokeWidth" markerWidth="6" markerHeight="8"><line x1="0" y1="8" x2="6" y2="0" stroke="black"/></marker><marker viewBox="0 0 8 6" id="verticalsplit_eaf871d7-7f6b-470d-b64a-4d365f09c7b8" refX="4" refY="3" markerUnits="strokeWidth" markerWidth="8" markerHeight="6"><line x1="0" y1="0" x2="8" y2="6" stroke="black"/></marker><marker viewBox="0 0 10 10" id="verticallineeaf871d7-7f6b-470d-b64a-4d365f09c7b8" refX="0" refY="5" markerUnits="strokeWidth" markerWidth="20" markerHeight="10" orient="auto" stroke-width="1px"><path d="M 0 -10 L 0 10" stroke="black"/></marker></defs><g><rect pointer-events="fill" fill="transparent" y="30" x="43.35000038146973" width="516.6499996185303" height="338.4"/><text text-anchor="middle" y="20" x="290"/><g transform="translate(20, 30)"><g><g><g><path shape-rendering="crispEdges" stroke="#F0F0F0" stroke-width="1" stroke-opacity="undefined" clip-path="url(#_clipploteaf871d7-7f6b-470d-b64a-4d365f09c7b8)" d=""/><path shape-rendering="crispEdges" stroke="#F0F0F0" stroke-width="1" stroke-opacity="undefined" clip-path="url(#_clipploteaf871d7-7f6b-470d-b64a-4d365f09c7b8)" d=""/></g><g><path shape-rendering="crispEdges" stroke="#DADADA" stroke-width="1" stroke-opacity="undefined" clip-path="url(#_clipploteaf871d7-7f6b-470d-b64a-4d365f09c7b8)" d=""/><path shape-rendering="crispEdges" stroke="#DADADA" stroke-width="1" stroke-opacity="undefined" clip-path="url(#_clipploteaf871d7-7f6b-470d-b64a-4d365f09c7b8)" d=""/></g></g><g transform="translate(0 338.4)"><rect pointer-events="fill" fill="transparent"/><g><line y1="0" y2="-2" stroke="black" display="visible" x1="529.6664936911361" x2="529.6664936911361"/><line y1="0" y2="-2" stroke="black" display="visible" x1="519.3335040317552" x2="519.3335040317552"/><line y1="0" y2="-2" stroke="black" display="visible" x1="509.0005143723742" x2="509.0005143723742"/><line y1="0" y2="-2" stroke="black" display="visible" x1="498.66752471299327" x2="498.66752471299327"/><line y1="0" y2="-4" stroke="black" display="visible" x1="488.3345350536123" x2="488.3345350536123"/><line y1="0" y2="-2" stroke="black" display="visible" x1="478.00154539423136" x2="478.00154539423136"/><line y1="0" y2="-2" stroke="black" display="visible" x1="467.66855573485043" x2="467.66855573485043"/><line y1="0" y2="-2" stroke="black" display="visible" x1="457.33556607546944" x2="457.33556607546944"/><line y1="0" y2="-2" stroke="black" display="visible" x1="447.0025764160885" x2="447.0025764160885"/><line y1="0" y2="-6" stroke="black" display="visible" x1="539.999483350517" x2="539.999483350517"/><line y1="0" y2="-2" stroke="black" display="visible" x1="426.3365970973266" x2="426.3365970973266"/><line y1="0" y2="-2" stroke="black" display="visible" x1="416.0036074379457" x2="416.0036074379457"/><line y1="0" y2="-2" stroke="black" display="visible" x1="405.67061777856475" x2="405.67061777856475"/><line y1="0" y2="-2" stroke="black" display="visible" x1="395.3376281191837" x2="395.3376281191837"/><line y1="0" y2="-4" stroke="black" display="visible" x1="385.0046384598028" x2="385.0046384598028"/><line y1="0" y2="-2" stroke="black" display="visible" x1="374.67164880042185" x2="374.67164880042185"/><line y1="0" y2="-2" stroke="black" display="visible" x1="364.33865914104086" x2="364.33865914104086"/><line y1="0" y2="-2" stroke="black" display="visible" x1="354.0056694816599" x2="354.0056694816599"/><line y1="0" y2="-2" stroke="black" display="visible" x1="343.67267982227895" x2="343.67267982227895"/><line y1="0" y2="-6" stroke="black" display="visible" x1="436.6695867567076" x2="436.6695867567076"/><line y1="0" y2="-2" stroke="black" display="visible" x1="323.0067005035172" x2="323.0067005035172"/><line y1="0" y2="-2" stroke="black" display="visible" x1="312.6737108441362" x2="312.6737108441362"/><line y1="0" y2="-2" stroke="black" display="visible" x1="302.34072118475524" x2="302.34072118475524"/><line y1="0" y2="-2" stroke="black" display="visible" x1="292.0077315253743" x2="292.0077315253743"/><line y1="0" y2="-4" stroke="black" display="visible" x1="281.6747418659934" x2="281.6747418659934"/><line y1="0" y2="-2" stroke="black" display="visible" x1="271.3417522066124" x2="271.3417522066124"/><line y1="0" y2="-2" stroke="black" display="visible" x1="261.0087625472314" x2="261.0087625472314"/><line y1="0" y2="-2" stroke="black" display="visible" x1="250.67577288785043" x2="250.67577288785043"/><line y1="0" y2="-2" stroke="black" display="visible" x1="240.3427832284695" x2="240.3427832284695"/><line y1="0" y2="-6" stroke="black" display="visible" x1="333.33969016289814" x2="333.33969016289814"/><line y1="0" y2="-2" stroke="black" display="visible" x1="219.6768039097077" x2="219.6768039097077"/><line y1="0" y2="-2" stroke="black" display="visible" x1="209.34381425032677" x2="209.34381425032677"/><line y1="0" y2="-2" stroke="black" display="visible" x1="199.0108245909458" x2="199.0108245909458"/><line y1="0" y2="-2" stroke="black" display="visible" x1="188.67783493156486" x2="188.67783493156486"/><line y1="0" y2="-4" stroke="black" display="visible" x1="178.34484527218387" x2="178.34484527218387"/><line y1="0" y2="-2" stroke="black" display="visible" x1="168.01185561280295" x2="168.01185561280295"/><line y1="0" y2="-2" stroke="black" display="visible" x1="157.67886595342202" x2="157.67886595342202"/><line y1="0" y2="-2" stroke="black" display="visible" x1="147.34587629404098" x2="147.34587629404098"/><line y1="0" y2="-2" stroke="black" display="visible" x1="137.01288663466005" x2="137.01288663466005"/><line y1="0" y2="-6" stroke="black" display="visible" x1="230.00979356908869" x2="230.00979356908869"/><line y1="0" y2="-2" stroke="black" display="visible" x1="116.3469073158983" x2="116.3469073158983"/><line y1="0" y2="-2" stroke="black" display="visible" x1="106.01391765651732" x2="106.01391765651732"/><line y1="0" y2="-2" stroke="black" display="visible" x1="95.68092799713645" x2="95.68092799713645"/><line y1="0" y2="-2" stroke="black" display="visible" x1="85.34793833775558" x2="85.34793833775558"/><line y1="0" y2="-4" stroke="black" display="visible" x1="75.01494867837465" x2="75.01494867837465"/><line y1="0" y2="-2" stroke="black" display="visible" x1="64.68195901899372" x2="64.68195901899372"/><line y1="0" y2="-2" stroke="black" display="visible" x1="54.348969359612795" x2="54.348969359612795"/><line y1="0" y2="-2" stroke="black" display="visible" x1="44.015979700231924" x2="44.015979700231924"/><line y1="0" y2="-2" stroke="black" display="visible" x1="33.682990040850996" x2="33.682990040850996"/><line y1="0" y2="-6" stroke="black" display="visible" x1="126.67989697527918" x2="126.67989697527918"/><line y1="0" y2="-6" stroke="black" display="visible" x1="23.350000381469727" x2="23.350000381469727"/></g><g><text y="8" text-anchor="middle" display="visible" x="539.999483350517" style="dominant-baseline: hanging;">0</text><text y="8" text-anchor="middle" display="visible" x="436.6695867567076" style="dominant-baseline: hanging;">2</text><text y="8" text-anchor="middle" display="visible" x="333.33969016289814" style="dominant-baseline: hanging;">4</text><text y="8" text-anchor="middle" display="visible" x="230.00979356908869" style="dominant-baseline: hanging;">6</text><text y="8" text-anchor="middle" display="visible" x="126.67989697527918" style="dominant-baseline: hanging;">8</text><text y="8" text-anchor="middle" display="visible" x="23.350000381469727" style="dominant-baseline: hanging;">10</text></g><line stroke="black" shape-rendering="crispEdges" stroke-linecap="square" display="block" x1="540" x2="23.350000381469727" y1="0" y2="0" marker-start="" marker-end=""/><text text-anchor="middle" fill="undefined" style="display: initial;" x="281.67500019073486" y="22"><tspan style="dominant-baseline: hanging;">δ (ppm)</tspan><tspan display="none" style="dominant-baseline: hanging;"/><tspan dx="6" display="none" style="dominant-baseline: hanging;"/><tspan dy="-5" font-size="0.8em" display="none" style="dominant-baseline: hanging;"/></text><g/></g><g transform="translate( 23.350000381469727 0 )"><rect pointer-events="fill" fill="transparent"/><g><line x1="0" x2="2" stroke="black" display="visible" y1="6.768331631668369" y2="6.768331631668369"/><line x1="0" x2="2" stroke="black" display="visible" y1="13.536324863675137" y2="13.536324863675137"/><line x1="0" x2="2" stroke="black" display="visible" y1="20.304318095681904" y2="20.304318095681904"/><line x1="0" x2="2" stroke="black" display="visible" y1="27.07231132768867" y2="27.07231132768867"/><line x1="0" x2="4" stroke="black" display="visible" y1="33.84030455969544" y2="33.84030455969544"/><line x1="0" x2="2" stroke="black" display="visible" y1="40.60829779170221" y2="40.60829779170221"/><line x1="0" x2="2" stroke="black" display="visible" y1="47.37629102370897" y2="47.37629102370897"/><line x1="0" x2="2" stroke="black" display="visible" y1="54.144284255715746" y2="54.144284255715746"/><line x1="0" x2="2" stroke="black" display="visible" y1="60.912277487722505" y2="60.912277487722505"/><line x1="0" x2="6" stroke="black" display="visible" y1="0.0003383996616003384" y2="0.0003383996616003384"/><line x1="0" x2="2" stroke="black" display="visible" y1="74.44826395173605" y2="74.44826395173605"/><line x1="0" x2="2" stroke="black" display="visible" y1="81.21625718374283" y2="81.21625718374283"/><line x1="0" x2="2" stroke="black" display="visible" y1="87.9842504157496" y2="87.9842504157496"/><line x1="0" x2="2" stroke="black" display="visible" y1="94.75224364775639" y2="94.75224364775639"/><line x1="0" x2="4" stroke="black" display="visible" y1="101.52023687976316" y2="101.52023687976316"/><line x1="0" x2="2" stroke="black" display="visible" y1="108.28823011176992" y2="108.28823011176992"/><line x1="0" x2="2" stroke="black" display="visible" y1="115.0562233437767" y2="115.0562233437767"/><line x1="0" x2="2" stroke="black" display="visible" y1="121.82421657578347" y2="121.82421657578347"/><line x1="0" x2="2" stroke="black" display="visible" y1="128.59220980779025" y2="128.59220980779025"/><line x1="0" x2="6" stroke="black" display="visible" y1="67.68027071972928" y2="67.68027071972928"/><line x1="0" x2="2" stroke="black" display="visible" y1="142.12819627180372" y2="142.12819627180372"/><line x1="0" x2="2" stroke="black" display="visible" y1="148.8961895038105" y2="148.8961895038105"/><line x1="0" x2="2" stroke="black" display="visible" y1="155.66418273581726" y2="155.66418273581726"/><line x1="0" x2="2" stroke="black" display="visible" y1="162.43217596782404" y2="162.43217596782404"/><line x1="0" x2="4" stroke="black" display="visible" y1="169.2001691998308" y2="169.2001691998308"/><line x1="0" x2="2" stroke="black" display="visible" y1="175.96816243183756" y2="175.96816243183756"/><line x1="0" x2="2" stroke="black" display="visible" y1="182.7361556638444" y2="182.7361556638444"/><line x1="0" x2="2" stroke="black" display="visible" y1="189.50414889585116" y2="189.50414889585116"/><line x1="0" x2="2" stroke="black" display="visible" y1="196.27214212785793" y2="196.27214212785793"/><line x1="0" x2="6" stroke="black" display="visible" y1="135.36020303979694" y2="135.36020303979694"/><line x1="0" x2="2" stroke="black" display="visible" y1="209.8081285918714" y2="209.8081285918714"/><line x1="0" x2="2" stroke="black" display="visible" y1="216.57612182387817" y2="216.57612182387817"/><line x1="0" x2="2" stroke="black" display="visible" y1="223.34411505588494" y2="223.34411505588494"/><line x1="0" x2="2" stroke="black" display="visible" y1="230.11210828789172" y2="230.11210828789172"/><line x1="0" x2="4" stroke="black" display="visible" y1="236.8801015198985" y2="236.8801015198985"/><line x1="0" x2="2" stroke="black" display="visible" y1="243.64809475190526" y2="243.64809475190526"/><line x1="0" x2="2" stroke="black" display="visible" y1="250.416087983912" y2="250.416087983912"/><line x1="0" x2="2" stroke="black" display="visible" y1="257.1840812159188" y2="257.1840812159188"/><line x1="0" x2="2" stroke="black" display="visible" y1="263.9520744479256" y2="263.9520744479256"/><line x1="0" x2="6" stroke="black" display="visible" y1="203.04013535986462" y2="203.04013535986462"/><line x1="0" x2="2" stroke="black" display="visible" y1="277.48806091193904" y2="277.48806091193904"/><line x1="0" x2="2" stroke="black" display="visible" y1="284.2560541439458" y2="284.2560541439458"/><line x1="0" x2="2" stroke="black" display="visible" y1="291.02404737595253" y2="291.02404737595253"/><line x1="0" x2="2" stroke="black" display="visible" y1="297.7920406079593" y2="297.7920406079593"/><line x1="0" x2="4" stroke="black" display="visible" y1="304.560033839966" y2="304.560033839966"/><line x1="0" x2="2" stroke="black" display="visible" y1="311.32802707197277" y2="311.32802707197277"/><line x1="0" x2="2" stroke="black" display="visible" y1="318.0960203039795" y2="318.0960203039795"/><line x1="0" x2="2" stroke="black" display="visible" y1="324.86401353598626" y2="324.86401353598626"/><line x1="0" x2="2" stroke="black" display="visible" y1="331.632006767993" y2="331.632006767993"/><line x1="0" x2="6" stroke="black" display="visible" y1="270.7200676799323" y2="270.7200676799323"/><line x1="0" x2="6" stroke="black" display="visible" y1="338.4" y2="338.4"/></g><g><text x="-5" text-anchor="end" display="visible" y="0.0003383996616003384" style="dominant-baseline: central;">0</text><text x="-5" text-anchor="end" display="visible" y="67.68027071972928" style="dominant-baseline: central;">2</text><text x="-5" text-anchor="end" display="visible" y="135.36020303979694" style="dominant-baseline: central;">4</text><text x="-5" text-anchor="end" display="visible" y="203.04013535986462" style="dominant-baseline: central;">6</text><text x="-5" text-anchor="end" display="visible" y="270.7200676799323" style="dominant-baseline: central;">8</text><text x="-5" text-anchor="end" display="visible" y="338.4" style="dominant-baseline: central;">10</text></g><line stroke="black" shape-rendering="crispEdges" stroke-linecap="square" display="block" y1="0" y2="338.4" x1="0" x2="0" marker-start="" marker-end=""/><text text-anchor="middle" transform="translate(-23.350000381469727, 169.2) rotate(-90)" fill="undefined" dominant-baseline="auto"><tspan/><tspan display="none"/><tspan dx="6" display="none"/><tspan dy="-5" font-size="0.8em" display="none"/></text><g/></g></g><g><g data-layer="1"><g><g clip-path="url(#_clipploteaf871d7-7f6b-470d-b64a-4d365f09c7b8)"><g/><g><path stroke="rgb(230,0,0)" stroke-width="1" fill="none" d="M 158.20000000000002 243.4L 158.20000000000002 243M 158.20000000000002 243L 158.60000000000002 243M 158 243.60000000000002L 158 243.4M 158.20000000000002 243.4L 158 243.4M 158 244L 158 243.60000000000002M 158 244.4L 158 244M 158 244.60000000000002L 158 244.4M 158 245L 158 244.60000000000002M 158 245.4L 158 245M 158 245.60000000000002L 158.20000000000002 245.60000000000002M 158 245.60000000000002L 158 245.4M 158.60000000000002 246L 158.20000000000002 246M 158.20000000000002 246L 158.20000000000002 245.60000000000002M 158.60000000000002 247L 158.4 247.20000000000002M 158.20000000000002 247.20000000000002L 158.20000000000002 247.4M 158.20000000000002 247.20000000000002L 158.4 247.20000000000002M 158 247.60000000000002L 158 247.4M 158.20000000000002 247.4L 158 247.4M 158 248L 158 247.60000000000002M 158 248.4L 158 248M 158 248.60000000000002L 158 248.4M 158 249L 158 248.60000000000002M 158 249.4L 158 249M 158 249.60000000000002L 158 249.4M 158.60000000000002 250L 158 250M 158 250L 158 249.60000000000002M 159.20000000000002 242.8L 159 242.8M 158.60000000000002 243L 158.8 242.8M 158.8 242.8L 159 242.8M 159.20000000000002 246L 158.60000000000002 246M 159.20000000000002 247L 159 247M 158.60000000000002 247L 159 247M 159.20000000000002 250L 158.60000000000002 250M 159.20000000000002 242.8L 159.60000000000002 242.8M 159.60000000000002 246L 159.20000000000002 246M 159.20000000000002 247L 159.60000000000002 247M 159.60000000000002 250L 159.20000000000002 250M 159.60000000000002 242.8L 160.20000000000002 242.8M 160.20000000000002 246L 159.60000000000002 246M 159.60000000000002 247L 160.20000000000002 247M 160.20000000000002 250L 159.60000000000002 250M 160.20000000000002 242.8L 160.60000000000002 242.8M 160.60000000000002 246L 160.20000000000002 246M 160.20000000000002 247L 160.60000000000002 247M 160.60000000000002 250L 160.20000000000002 250M 160.60000000000002 242.8L 161.20000000000002 242.8M 161.20000000000002 246L 160.60000000000002 246M 160.60000000000002 247L 161.20000000000002 247M 161.20000000000002 250L 160.60000000000002 250M 161.60000000000002 242.8L 161.60000000000002 243M 161.20000000000002 242.8L 161.60000000000002 242.8M 161.60000000000002 246L 161.20000000000002 246M 161.20000000000002 247L 161.60000000000002 247M 161.60000000000002 250L 161.20000000000002 250M 162.20000000000002 243.20000000000002L 162.20000000000002 243M 161.60000000000002 243L 162.20000000000002 243M 162.20000000000002 246L 162.20000000000002 245.8M 162.20000000000002 246L 161.60000000000002 246M 162 247.4L 162 247.20000000000002M 161.8 247.20000000000002L 161.60000000000002 247M 161.8 247.20000000000002L 162 247.20000000000002M 162.20000000000002 247.4L 162 247.4M 162.20000000000002 250L 161.60000000000002 250M 162.20000000000002 243.20000000000002L 162.20000000000002 243.4M 162.60000000000002 243.4L 162.60000000000002 243.60000000000002M 162.60000000000002 243.4L 162.20000000000002 243.4M 162.60000000000002 243.60000000000002L 162.60000000000002 244M 162.60000000000002 244L 162.60000000000002 244.4M 162.60000000000002 244.4L 162.60000000000002 244.60000000000002M 162.60000000000002 244.60000000000002L 162.60000000000002 245M 162.60000000000002 245L 162.60000000000002 245.4M 162.60000000000002 245.4L 162.60000000000002 245.60000000000002M 162.4 245.60000000000002L 162.60000000000002 245.60000000000002M 162.4 245.60000000000002L 162.20000000000002 245.8M 162.4 247.4L 162.4 247.60000000000002M 162.60000000000002 247.60000000000002L 162.4 247.60000000000002M 162.20000000000002 247.4L 162.4 247.4M 162.60000000000002 247.60000000000002L 162.60000000000002 248M 162.60000000000002 248L 162.60000000000002 248.4M 162.60000000000002 248.4L 162.60000000000002 248.60000000000002M 162.60000000000002 248.60000000000002L 162.60000000000002 249M 162.60000000000002 249L 162.60000000000002 249.4M 162.60000000000002 249.4L 162.60000000000002 249.60000000000002M 162.4 249.8L 162.20000000000002 249.8M 162.20000000000002 250L 162.20000000000002 249.8M 162.4 249.8L 162.60000000000002 249.60000000000002M 164.20000000000002 243.20000000000002L 164.20000000000002 243.4M 164.20000000000002 243.20000000000002L 164.60000000000002 243M 164.20000000000002 243.60000000000002L 164.20000000000002 243.4M 164.20000000000002 244L 164.20000000000002 243.60000000000002M 164.20000000000002 244.4L 164.20000000000002 244M 164.20000000000002 244.60000000000002L 164.20000000000002 244.4M 164.20000000000002 245L 164.20000000000002 244.60000000000002M 164.20000000000002 245.4L 164.20000000000002 245M 164.20000000000002 245.60000000000002L 164.20000000000002 245.4M 164.60000000000002 246L 164.20000000000002 246M 164.20000000000002 246L 164.20000000000002 245.8M 164.20000000000002 245.60000000000002L 164.20000000000002 245.8M 164.4 247.4L 164.60000000000002 247.20000000000002M 164.20000000000002 247.60000000000002L 164.20000000000002 247.4M 164.4 247.4L 164.20000000000002 247.4M 164.20000000000002 248L 164.20000000000002 247.60000000000002M 164.20000000000002 248.4L 164.20000000000002 248M 164.20000000000002 248.60000000000002L 164.20000000000002 248.4M 164.20000000000002 249L 164.20000000000002 248.60000000000002M 164.20000000000002 249.4L 164.20000000000002 249M 164.20000000000002 249.60000000000002L 164.20000000000002 249.4M 164.60000000000002 250L 164.20000000000002 250M 164.20000000000002 250L 164.20000000000002 249.60000000000002M 165 242.8L 165.20000000000002 242.8M 164.8 243L 165 242.8M 164.8 243L 164.60000000000002 243M 165.20000000000002 246L 164.60000000000002 246M 164.60000000000002 247L 164.60000000000002 247.20000000000002M 164.60000000000002 247L 165.20000000000002 247M 165.20000000000002 250L 164.60000000000002 250M 165.20000000000002 242.8L 165.60000000000002 242.8M 165.60000000000002 246L 165.20000000000002 246M 165.20000000000002 247L 165.60000000000002 247M 165.60000000000002 250L 165.20000000000002 250M 165.60000000000002 242.8L 166.20000000000002 242.8M 166.20000000000002 246L 165.60000000000002 246M 165.60000000000002 247L 166.20000000000002 247M 166.20000000000002 250L 165.60000000000002 250M 166.20000000000002 242.8L 166.60000000000002 242.8M 166.60000000000002 246L 166.20000000000002 246M 166.20000000000002 247L 166.60000000000002 247M 166.60000000000002 250L 166.20000000000002 250M 166.60000000000002 242.8L 167.20000000000002 242.8M 167.20000000000002 246L 166.60000000000002 246M 166.60000000000002 247L 167.20000000000002 247M 167.20000000000002 250L 166.60000000000002 250M 167.20000000000002 242.8L 167.60000000000002 242.8M 167.60000000000002 246L 167.20000000000002 246M 167.20000000000002 247L 167.60000000000002 247M 167.60000000000002 250L 167.20000000000002 250M 168 242.8L 168 243M 167.60000000000002 242.8L 168 242.8M 168.20000000000002 243L 168 243M 168.20000000000002 246L 167.60000000000002 246M 168.20000000000002 247.20000000000002L 168.20000000000002 247M 167.8 247L 167.60000000000002 247M 167.8 247L 168.20000000000002 247M 168.20000000000002 250L 167.60000000000002 250M 168.60000000000002 243.4L 168.60000000000002 243.20000000000002M 168.4 243.20000000000002L 168.20000000000002 243M 168.4 243.20000000000002L 168.60000000000002 243.20000000000002M 168.60000000000002 245.8L 168.60000000000002 246M 168.60000000000002 246L 168.4 246M 168.20000000000002 246L 168.4 246M 168.60000000000002 245.8L 168.60000000000002 245.60000000000002M 168.20000000000002 247.20000000000002L 168.4 247.4M 168.60000000000002 247.4L 168.60000000000002 247.60000000000002M 168.60000000000002 247.4L 168.4 247.4M 168.60000000000002 249.60000000000002L 168.60000000000002 250M 168.60000000000002 250L 168.20000000000002 250M 168.60000000000002 243.4L 169 243.60000000000002M 169.20000000000002 243.8L 169.20000000000002 244M 169.20000000000002 243.8L 169 243.60000000000002M 169.20000000000002 244L 169.20000000000002 244.4M 169.20000000000002 244.4L 169.20000000000002 244.60000000000002M 169.20000000000002 244.60000000000002L 169.20000000000002 245M 169.20000000000002 245L 169.20000000000002 245.4M 169 245.4L 169.20000000000002 245.4M 169 245.60000000000002L 168.60000000000002 245.60000000000002M 169 245.4L 169 245.60000000000002M 169 247.8L 169 248M 169.20000000000002 248L 169 248M 168.8 247.60000000000002L 168.60000000000002 247.60000000000002M 168.8 247.60000000000002L 169 247.8M 169.20000000000002 248L 169.20000000000002 248.4M 169.20000000000002 248.4L 169.20000000000002 248.60000000000002M 169.20000000000002 248.60000000000002L 169.20000000000002 249M 169.20000000000002 249L 169.20000000000002 249.4M 169 249.4L 169 249.60000000000002M 169 249.60000000000002L 168.8 249.60000000000002M 168.60000000000002 249.60000000000002L 168.8 249.60000000000002M 169 249.4L 169.20000000000002 249.4M 174.8 235.4L 174.60000000000002 235.60000000000002M 174.4 235.60000000000002L 174.4 235.8M 174.4 235.60000000000002L 174.60000000000002 235.60000000000002M 174.20000000000002 236L 174.20000000000002 235.8M 174.4 235.8L 174.20000000000002 235.8M 174.20000000000002 236.4L 174.20000000000002 236M 174.20000000000002 236.8L 174.20000000000002 236.4M 174.20000000000002 237L 174.20000000000002 236.8M 174.20000000000002 237.4L 174.20000000000002 237M 174.20000000000002 237.8L 174.20000000000002 237.4M 174.20000000000002 238L 174.20000000000002 237.8M 174.20000000000002 238.4L 174.20000000000002 238M 174.20000000000002 238.8L 174.20000000000002 238.4M 174.20000000000002 239L 174.20000000000002 238.8M 174.8 239.4L 174.20000000000002 239.4M 174.20000000000002 239.4L 174.20000000000002 239M 174.8 235.4L 175.20000000000002 235.4M 175.20000000000002 239.4L 174.8 239.4M 175.20000000000002 235.4L 175.8 235.4M 175.8 239.4L 175.20000000000002 239.4M 175.8 235.4L 176.20000000000002 235.4M 176.20000000000002 239.4L 175.8 239.4M 176.20000000000002 235.4L 176.8 235.4M 176.8 239.4L 176.20000000000002 239.4M 176.8 235.4L 177.20000000000002 235.4M 177.20000000000002 239.4L 176.8 239.4M 177.20000000000002 235.4L 177.8 235.4M 177.8 239.4L 177.20000000000002 239.4M 177.8 235.4L 178.20000000000002 235.4M 178.20000000000002 239.4L 177.8 239.4M 178.20000000000002 235.4L 178.8 235.4M 178.8 239.4L 178.20000000000002 239.4M 179.4 235.4L 179.20000000000002 235.4M 178.8 235.4L 179.20000000000002 235.4M 179.4 239.4L 178.8 239.4M 179.8 235.8L 179.60000000000002 235.60000000000002M 179.4 235.60000000000002L 179.4 235.4M 179.4 235.60000000000002L 179.60000000000002 235.60000000000002M 179.8 239.4L 179.4 239.4M 180.20000000000002 235.8L 180.20000000000002 236M 180 235.8L 179.8 235.8M 180 235.8L 180.20000000000002 235.8M 180.4 236L 180.4 236.4M 180.4 236L 180.20000000000002 236M 180.4 236.4L 180.4 236.8M 180.4 236.8L 180.4 237M 180.4 237L 180.4 237.4M 180.4 237.4L 180.4 237.8M 180.4 237.8L 180.4 238M 180.4 238L 180.4 238.4M 180.4 238.4L 180.4 238.8M 180.4 238.8L 180.4 239M 180.20000000000002 239L 180.4 239M 180.20000000000002 239.20000000000002L 180.20000000000002 239.4M 180.20000000000002 239.4L 180 239.4M 179.8 239.4L 180 239.4M 180.20000000000002 239.20000000000002L 180.20000000000002 239M 440.20000000000005 62.400000000000006L 440.40000000000003 62.2M 440 62.800000000000004L 440 62.400000000000006M 440.20000000000005 62.400000000000006L 440 62.400000000000006M 440 63L 440 62.800000000000004M 440 63.400000000000006L 440 63M 440 63.800000000000004L 440 63.400000000000006M 440 64L 440 63.800000000000004M 440 64.4L 440 64M 440 64.8L 440 64.4M 440 65L 440 64.8M 440.40000000000003 65.4L 440 65.4M 440 65.4L 440 65M 441 62L 440.8 62.2M 440.40000000000003 62.2L 440.8 62.2M 441 65.4L 440.40000000000003 65.4M 441 62L 441.40000000000003 62M 441.40000000000003 65.4L 441 65.4M 441.40000000000003 62L 442 62M 442 65.4L 441.40000000000003 65.4M 442 62L 442.40000000000003 62M 442.40000000000003 65.4L 442 65.4M 442.40000000000003 62L 443 62M 443 65.4L 442.40000000000003 65.4M 443 62L 443.40000000000003 62M 443.40000000000003 65.4L 443 65.4M 443.40000000000003 62.2L 443.40000000000003 62M 443.40000000000003 62.2L 444 62.2M 444 65.4L 443.40000000000003 65.4M 444.20000000000005 62.2L 444.20000000000005 62.400000000000006M 444 62.2L 444.20000000000005 62.2M 444.40000000000003 62.6L 444.40000000000003 62.400000000000006M 444.40000000000003 62.400000000000006L 444.20000000000005 62.400000000000006M 444.40000000000003 65.4L 444.40000000000003 65.2M 444.40000000000003 65.4L 444 65.4M 444.6 62.6L 444.8 62.800000000000004M 444.40000000000003 62.6L 444.6 62.6M 445 62.800000000000004L 445 63M 445 62.800000000000004L 444.8 62.800000000000004M 445 63L 445 63.400000000000006M 445 63.400000000000006L 445 63.800000000000004M 445 63.800000000000004L 445 64M 445 64L 445 64.4M 445 64.4L 445 64.8M 445 64.8L 445 65M 444.6 65L 445 65M 444.6 65.2L 444.40000000000003 65.2M 444.6 65L 444.6 65.2M 449 56.800000000000004L 449 56.400000000000006M 449 56.400000000000006L 449.40000000000003 56.400000000000006M 449 57.2L 449 56.800000000000004M 449 57.400000000000006L 449 57.2M 449 57.800000000000004L 449 57.400000000000006M 449 58.2L 449 57.800000000000004M 449 58.400000000000006L 449 58.2M 449 58.800000000000004L 449 58.400000000000006M 449 59.2L 449 58.800000000000004M 449.40000000000003 59.400000000000006L 449 59.400000000000006M 449 59.400000000000006L 449 59.2M 449.40000000000003 56.400000000000006L 450 56.400000000000006M 450 59.400000000000006L 449.40000000000003 59.400000000000006M 450 56.400000000000006L 450.6 56.400000000000006M 450.6 59.400000000000006L 450 59.400000000000006M 450.6 56.400000000000006L 451 56.400000000000006M 451 59.400000000000006L 450.6 59.400000000000006M 451 56.400000000000006L 451.6 56.400000000000006M 451.6 59.400000000000006L 451 59.400000000000006M 451.6 56.400000000000006L 452 56.400000000000006M 452 59.400000000000006L 451.6 59.400000000000006M 452 56.400000000000006L 452.6 56.400000000000006M 452.6 59.400000000000006L 452 59.400000000000006M 452.6 56.400000000000006L 453 56.400000000000006M 453 59.400000000000006L 452.6 59.400000000000006M 453.40000000000003 56.6L 453.40000000000003 56.800000000000004M 453.20000000000005 56.6L 453 56.400000000000006M 453.20000000000005 56.6L 453.40000000000003 56.6M 453.6 56.800000000000004L 453.6 57.2M 453.6 56.800000000000004L 453.40000000000003 56.800000000000004M 453.6 57.2L 453.6 57.400000000000006M 453.6 57.400000000000006L 453.6 57.800000000000004M 453.6 57.800000000000004L 453.6 58.2M 453.6 58.2L 453.6 58.400000000000006M 453.6 58.400000000000006L 453.6 58.800000000000004M 453.6 58.800000000000004L 453.6 59.2M 453.6 59.2L 453.6 59.400000000000006M 453.6 59.400000000000006L 453 59.400000000000006 z" data-zvalue="0.96" display="block"/><path stroke="rgb(230,0,0)" stroke-width="1" fill="none" d="M 159 244.20000000000002L 159.20000000000002 244.20000000000002M 158.8 244.4L 159 244.20000000000002M 158.8 244.4L 158.8 244.60000000000002M 159.20000000000002 245L 159 244.8M 159 244.8L 158.8 244.60000000000002M 159 248.20000000000002L 159.20000000000002 248.20000000000002M 159 248.4L 159 248.20000000000002M 158.8 248.60000000000002L 158.8 248.4M 158.8 248.4L 159 248.4M 159 249L 158.8 248.8M 158.8 248.8L 158.8 248.60000000000002M 159.20000000000002 249.20000000000002L 159 249M 159.60000000000002 243.8L 159.4 243.8M 159.4 243.8L 159.20000000000002 244M 159.20000000000002 244L 159.20000000000002 244.20000000000002M 159.4 245.20000000000002L 159.60000000000002 245.20000000000002M 159.4 245.20000000000002L 159.20000000000002 245.20000000000002M 159.20000000000002 245L 159.20000000000002 245.20000000000002M 159.4 248L 159.60000000000002 248M 159.20000000000002 248L 159.20000000000002 248.20000000000002M 159.4 248L 159.20000000000002 248M 159.20000000000002 249.20000000000002L 159.4 249.4M 159.60000000000002 249.4L 159.4 249.4M 160.20000000000002 243.8L 160 243.8M 159.60000000000002 243.8L 160 243.8M 160 245.4L 160.20000000000002 245.4M 160 245.4L 159.60000000000002 245.4M 159.60000000000002 245.20000000000002L 159.60000000000002 245.4M 159.8 247.8L 160.20000000000002 247.8M 159.60000000000002 248L 159.8 247.8M 160.20000000000002 249.60000000000002L 159.8 249.4M 159.8 249.4L 159.60000000000002 249.4M 160.20000000000002 243.8L 160.60000000000002 243.8M 160.60000000000002 245.4L 160.60000000000002 245.20000000000002M 160.60000000000002 245.4L 160.20000000000002 245.4M 160.4 247.8L 160.60000000000002 248M 160.20000000000002 247.8L 160.4 247.8M 160.60000000000002 249.4L 160.4 249.4M 160.4 249.4L 160.20000000000002 249.60000000000002M 161 244L 160.8 243.8M 160.8 243.8L 160.60000000000002 243.8M 161.20000000000002 244.20000000000002L 161 244M 161 245L 161.20000000000002 245M 161 245.20000000000002L 160.8 245.20000000000002M 160.60000000000002 245.20000000000002L 160.8 245.20000000000002M 161 245.20000000000002L 161 245M 160.60000000000002 248L 160.8 248M 161.20000000000002 248.20000000000002L 161 248M 161 248L 160.8 248M 161 249.20000000000002L 161.20000000000002 249M 160.8 249.4L 161 249.20000000000002M 160.8 249.4L 160.60000000000002 249.4M 161.4 244.20000000000002L 161.4 244.4M 161.20000000000002 244.20000000000002L 161.4 244.20000000000002M 161.4 244.60000000000002L 161.4 244.4M 161.4 244.8L 161.20000000000002 245M 161.4 244.60000000000002L 161.4 244.8M 161.20000000000002 248.20000000000002L 161.20000000000002 248.4M 161.4 248.4L 161.4 248.60000000000002M 161.20000000000002 248.4L 161.4 248.4M 161.4 248.8L 161.20000000000002 249M 161.4 248.60000000000002L 161.4 248.8M 165.60000000000002 244L 165.60000000000002 243.8M 165.4 244L 165.60000000000002 244M 165.20000000000002 244.4L 165.20000000000002 244.20000000000002M 165.4 244L 165.20000000000002 244.20000000000002M 165.20000000000002 244.60000000000002L 165.20000000000002 244.4M 165.20000000000002 245L 165.4 245M 165.20000000000002 245L 165.20000000000002 244.8M 165.20000000000002 244.60000000000002L 165.20000000000002 244.8M 165.60000000000002 245.20000000000002L 165.4 245.20000000000002M 165.4 245.20000000000002L 165.4 245M 165.60000000000002 248L 165.60000000000002 248.20000000000002M 165.4 248.20000000000002L 165.20000000000002 248.4M 165.4 248.20000000000002L 165.60000000000002 248.20000000000002M 165.20000000000002 248.60000000000002L 165.20000000000002 248.4M 165.20000000000002 249L 165.20000000000002 248.60000000000002M 165.60000000000002 249.20000000000002L 165.4 249.20000000000002M 165.20000000000002 249L 165.4 249.20000000000002M 166.20000000000002 243.8L 166 243.8M 165.8 243.8L 165.60000000000002 243.8M 165.8 243.8L 166 243.8M 166.20000000000002 245.4L 165.8 245.20000000000002M 165.60000000000002 245.20000000000002L 165.8 245.20000000000002M 166 247.8L 166.20000000000002 247.8M 165.8 248L 166 247.8M 165.8 248L 165.60000000000002 248M 165.60000000000002 249.4L 165.8 249.4M 165.60000000000002 249.20000000000002L 165.60000000000002 249.4M 166.20000000000002 249.4L 166 249.4M 166 249.4L 165.8 249.4M 166.20000000000002 243.8L 166.60000000000002 243.8M 166.60000000000002 245.4L 166.20000000000002 245.4M 166.60000000000002 247.8L 166.4 247.8M 166.4 247.8L 166.20000000000002 247.8M 166.4 249.4L 166.60000000000002 249.4M 166.20000000000002 249.4L 166.4 249.4M 167.20000000000002 243.8L 167 243.8M 166.8 243.8L 166.60000000000002 243.8M 166.8 243.8L 167 243.8M 167 245.20000000000002L 167.20000000000002 245.20000000000002M 167 245.20000000000002L 166.8 245.20000000000002M 166.60000000000002 245.4L 166.8 245.20000000000002M 166.8 247.8L 167 248M 166.60000000000002 247.8L 166.8 247.8M 167.20000000000002 248L 167 248M 167 249.4L 167.20000000000002 249.20000000000002M 166.8 249.4L 166.60000000000002 249.4M 167 249.4L 166.8 249.4M 167.20000000000002 243.8L 167.4 244M 167.60000000000002 244.4L 167.60000000000002 244.20000000000002M 167.60000000000002 244.20000000000002L 167.4 244M 167.60000000000002 244.4L 167.60000000000002 244.60000000000002M 167.60000000000002 244.8L 167.60000000000002 245M 167.4 245L 167.60000000000002 245M 167.60000000000002 244.8L 167.60000000000002 244.60000000000002M 167.4 245.20000000000002L 167.20000000000002 245.20000000000002M 167.4 245L 167.4 245.20000000000002M 167.60000000000002 248.4L 167.4 248.20000000000002M 167.4 248.20000000000002L 167.20000000000002 248M 167.60000000000002 248.4L 167.60000000000002 248.60000000000002M 167.60000000000002 248.60000000000002L 167.60000000000002 249M 167.20000000000002 249.20000000000002L 167.4 249.20000000000002M 167.4 249.20000000000002L 167.60000000000002 249M 175 236.8L 175.20000000000002 236.60000000000002M 175 237L 175 236.8M 175 237.20000000000002L 175 237.4M 175 237L 175 237.20000000000002M 175 237.60000000000002L 175 237.8M 175 237.4L 175 237.60000000000002M 175 238L 175 237.8M 175 238.20000000000002L 175 238.4M 175 238L 175 238.20000000000002M 175.20000000000002 238.60000000000002L 175 238.4M 175.60000000000002 236.4L 175.8 236.4M 175.4 236.4L 175.20000000000002 236.60000000000002M 175.60000000000002 236.4L 175.4 236.4M 175.4 238.60000000000002L 175.4 238.8M 175.20000000000002 238.60000000000002L 175.4 238.60000000000002M 175.8 238.8L 175.60000000000002 238.8M 175.60000000000002 238.8L 175.4 238.8M 176 236.20000000000002L 176.20000000000002 236.20000000000002M 175.8 236.4L 176 236.20000000000002M 176 239L 176.20000000000002 239M 175.8 238.8L 176 239M 176.60000000000002 236.20000000000002L 176.8 236.20000000000002M 176.20000000000002 236.20000000000002L 176.60000000000002 236.20000000000002M 176.60000000000002 239L 176.8 238.8M 176.60000000000002 239L 176.4 239M 176.20000000000002 239L 176.4 239M 177 236.20000000000002L 177.20000000000002 236.20000000000002M 176.8 236.20000000000002L 177 236.20000000000002M 177 239L 177.20000000000002 239M 176.8 238.8L 177 239M 177.60000000000002 236.20000000000002L 177.8 236.20000000000002M 177.20000000000002 236.20000000000002L 177.60000000000002 236.20000000000002M 177.60000000000002 239L 177.8 239M 177.60000000000002 239L 177.4 239M 177.20000000000002 239L 177.4 239M 178.20000000000002 236.20000000000002L 178.20000000000002 236.4M 178.20000000000002 236.20000000000002L 178 236.20000000000002M 177.8 236.20000000000002L 178 236.20000000000002M 178 239L 178.20000000000002 238.8M 177.8 239L 178 239M 178.20000000000002 236.4L 178.4 236.4M 178.8 236.60000000000002L 178.60000000000002 236.4M 178.60000000000002 236.4L 178.4 236.4M 178.60000000000002 238.8L 178.8 238.60000000000002M 178.4 238.8L 178.20000000000002 238.8M 178.60000000000002 238.8L 178.4 238.8M 178.8 236.60000000000002L 179 236.8M 179 237L 179 236.8M 179 237.20000000000002L 179 237.4M 179 237L 179 237.20000000000002M 179 237.60000000000002L 179 237.8M 179 237.4L 179 237.60000000000002M 179 238L 179 237.8M 179 238.20000000000002L 179 238.4M 179 238L 179 238.20000000000002M 179 238.4L 178.8 238.60000000000002M 440.8 63.2L 441 63.2M 440.6 63.400000000000006L 440.8 63.2M 440.6 63.6L 440.40000000000003 63.800000000000004M 440.6 63.6L 440.6 63.400000000000006M 440.40000000000003 64L 440.40000000000003 63.800000000000004M 440.6 64.4L 440.6 64.2M 440.40000000000003 64L 440.6 64.2M 441 64.60000000000001L 440.8 64.60000000000001M 440.8 64.60000000000001L 440.6 64.4M 441.20000000000005 63L 441.40000000000003 62.800000000000004M 441 63L 441.20000000000005 63M 441 63L 441 63.2M 441 64.8L 441.20000000000005 64.8M 441 64.60000000000001L 441 64.8M 441.40000000000003 64.8L 441.20000000000005 64.8M 442 62.800000000000004L 441.8 62.800000000000004M 441.6 62.800000000000004L 441.40000000000003 62.800000000000004M 441.6 62.800000000000004L 441.8 62.800000000000004M 441.8 65L 442 65M 441.8 65L 441.6 65M 441.40000000000003 64.8L 441.6 65M 442 62.800000000000004L 442.40000000000003 62.800000000000004M 442.40000000000003 65L 442 65M 443 62.800000000000004L 442.8 62.800000000000004M 442.40000000000003 62.800000000000004L 442.8 62.800000000000004M 442.8 65L 443 65M 442.8 65L 442.6 65M 442.40000000000003 65L 442.6 65M 443.20000000000005 63L 443.40000000000003 63M 443 62.800000000000004L 443.20000000000005 63M 443.40000000000003 63.2L 443.40000000000003 63M 443.40000000000003 64.8L 443.40000000000003 64.60000000000001M 443.20000000000005 64.8L 443.40000000000003 64.8M 443.20000000000005 64.8L 443 65M 443.6 63.2L 443.8 63.400000000000006M 443.40000000000003 63.2L 443.6 63.2M 443.8 63.400000000000006L 443.8 63.6M 443.8 63.800000000000004L 443.8 63.6M 443.8 63.800000000000004L 443.8 64M 443.8 64.2L 443.8 64.4M 443.8 64.2L 443.8 64M 443.6 64.60000000000001L 443.40000000000003 64.60000000000001M 443.8 64.4L 443.6 64.60000000000001M 449.40000000000003 57.800000000000004L 449.40000000000003 57.6M 449.20000000000005 58.2L 449.20000000000005 58M 449.20000000000005 58L 449.40000000000003 57.800000000000004M 449.20000000000005 58.2L 449.40000000000003 58.400000000000006M 449.40000000000003 58.6L 449.40000000000003 58.400000000000006M 449.6 57.400000000000006L 449.6 57.2M 449.6 57.2L 450 57.2M 449.6 57.400000000000006L 449.40000000000003 57.6M 449.40000000000003 58.6L 449.6 58.800000000000004M 450 59L 449.8 59M 449.8 59L 449.6 58.800000000000004M 450.20000000000005 57L 450.6 57M 450 57.2L 450.20000000000005 57M 450 59L 450.40000000000003 59.2M 450.6 59.2L 450.40000000000003 59.2M 450.6 56.800000000000004L 450.6 57M 450.6 56.800000000000004L 451 56.800000000000004M 451 59.2L 450.8 59.2M 450.6 59.2L 450.8 59.2M 451.6 56.800000000000004L 451.40000000000003 56.800000000000004M 451.20000000000005 56.800000000000004L 451 56.800000000000004M 451.20000000000005 56.800000000000004L 451.40000000000003 56.800000000000004M 451.6 59.2L 451.20000000000005 59.2M 451.20000000000005 59.2L 451 59.2M 452 57.2L 451.8 57M 451.8 57L 451.6 56.800000000000004M 451.8 59.2L 452 59M 451.8 59.2L 451.6 59.2M 452.6 57.400000000000006L 452.40000000000003 57.2M 452.40000000000003 57.2L 452 57.2M 452.40000000000003 58.800000000000004L 452.6 58.800000000000004M 452.40000000000003 58.800000000000004L 452.40000000000003 59M 452.40000000000003 59L 452.20000000000005 59M 452 59L 452.20000000000005 59M 453 57.800000000000004L 452.8 57.6M 452.8 57.6L 452.6 57.400000000000006M 453 57.800000000000004L 453 58M 453 58.2L 453 58M 453 58.2L 453 58.400000000000006M 452.8 58.400000000000006L 453 58.400000000000006M 452.8 58.6L 452.6 58.800000000000004M 452.8 58.400000000000006L 452.8 58.6 z" data-zvalue="69160.1785714535" display="block"/><path stroke="rgb(230,0,0)" stroke-width="1" fill="none" d="M 159.20000000000002 244.20000000000002L 159.20000000000002 244.4M 159.20000000000002 244.20000000000002L 159.4 244.20000000000002M 159.4 244.20000000000002L 159.60000000000002 244M 159.20000000000002 244.60000000000002L 159.20000000000002 244.4M 159.4 244.8L 159.60000000000002 245M 159.4 244.8L 159.20000000000002 244.8M 159.20000000000002 244.60000000000002L 159.20000000000002 244.8M 159.4 248.20000000000002L 159.60000000000002 248.20000000000002M 159.4 248.4L 159.4 248.20000000000002M 159.20000000000002 248.60000000000002L 159.20000000000002 248.4M 159.4 248.4L 159.20000000000002 248.4M 159.20000000000002 249L 159.20000000000002 248.8M 159.20000000000002 248.60000000000002L 159.20000000000002 248.8M 159.60000000000002 249.20000000000002L 159.4 249.20000000000002M 159.4 249.20000000000002L 159.20000000000002 249M 160 244L 160.20000000000002 243.8M 159.60000000000002 244L 160 244M 160.20000000000002 245.20000000000002L 160 245.20000000000002M 159.60000000000002 245L 160 245.20000000000002M 160.20000000000002 248L 160 248M 159.8 248L 159.60000000000002 248.20000000000002M 159.8 248L 160 248M 160 249.20000000000002L 160.20000000000002 249.20000000000002M 160 249.20000000000002L 159.8 249.20000000000002M 159.60000000000002 249.20000000000002L 159.8 249.20000000000002M 160.20000000000002 244L 160.60000000000002 244M 160.20000000000002 243.8L 160.20000000000002 244M 160.4 245.20000000000002L 160.20000000000002 245.20000000000002M 160.4 245.20000000000002L 160.60000000000002 245M 160.60000000000002 248.20000000000002L 160.4 248M 160.20000000000002 248L 160.4 248M 160.4 249.20000000000002L 160.60000000000002 249.20000000000002M 160.4 249.20000000000002L 160.20000000000002 249.20000000000002M 161 244.4L 161 244.20000000000002M 160.60000000000002 244L 161 244.20000000000002M 161 244.4L 161 244.60000000000002M 160.60000000000002 245L 161 244.8M 161 244.8L 161 244.60000000000002M 160.8 248.20000000000002L 161 248.4M 160.60000000000002 248.20000000000002L 160.8 248.20000000000002M 161 248.4L 161 248.60000000000002M 161 249L 161 248.8M 161 248.8L 161 248.60000000000002M 160.8 249.20000000000002L 160.60000000000002 249.20000000000002M 161 249L 160.8 249.20000000000002M 165.4 244.4L 165.60000000000002 244.20000000000002M 165.4 244.4L 165.4 244.60000000000002M 165.60000000000002 244.8L 165.4 244.60000000000002M 165.60000000000002 248.4L 165.4 248.60000000000002M 165.4 248.8L 165.60000000000002 249M 165.4 248.8L 165.4 248.60000000000002M 166 244L 166.20000000000002 244M 165.8 244L 165.60000000000002 244.20000000000002M 166 244L 165.8 244M 165.60000000000002 244.8L 165.8 245M 166.20000000000002 245.20000000000002L 166 245.20000000000002M 166 245.20000000000002L 165.8 245M 166.20000000000002 248L 166 248.20000000000002M 165.8 248.20000000000002L 165.60000000000002 248.4M 165.8 248.20000000000002L 166 248.20000000000002M 166 249.20000000000002L 166.20000000000002 249.20000000000002M 166 249.20000000000002L 165.8 249.20000000000002M 165.60000000000002 249L 165.8 249.20000000000002M 166.60000000000002 244L 166.4 244M 166.20000000000002 244L 166.4 244M 166.60000000000002 245.20000000000002L 166.4 245.20000000000002M 166.4 245.20000000000002L 166.20000000000002 245.20000000000002M 166.20000000000002 248L 166.60000000000002 248M 166.60000000000002 249.20000000000002L 166.20000000000002 249.20000000000002M 166.8 244L 167 244M 166.60000000000002 244L 166.8 244M 167.20000000000002 244.20000000000002L 167 244M 167 245L 167.20000000000002 244.8M 166.8 245.20000000000002L 166.60000000000002 245.20000000000002M 167 245L 166.8 245.20000000000002M 167 248.20000000000002L 167.20000000000002 248.20000000000002M 167.20000000000002 248.4L 167.20000000000002 248.20000000000002M 166.8 248.20000000000002L 166.60000000000002 248M 166.8 248.20000000000002L 167 248.20000000000002M 167.20000000000002 249L 167 249.20000000000002M 167 249.20000000000002L 166.8 249.20000000000002M 166.60000000000002 249.20000000000002L 166.8 249.20000000000002M 167.4 244.20000000000002L 167.4 244.4M 167.20000000000002 244.20000000000002L 167.4 244.20000000000002M 167.4 244.60000000000002L 167.4 244.4M 167.4 244.8L 167.20000000000002 244.8M 167.4 244.60000000000002L 167.4 244.8M 167.20000000000002 248.4L 167.4 248.60000000000002M 167.4 248.8L 167.20000000000002 249M 167.4 248.60000000000002L 167.4 248.8M 175.60000000000002 236.60000000000002L 175.8 236.60000000000002M 175.4 236.8L 175.60000000000002 236.60000000000002M 175.4 237L 175.20000000000002 237M 175.4 237L 175.4 236.8M 175.4 237.4L 175.4 237.20000000000002M 175.20000000000002 237L 175.4 237.20000000000002M 175.4 237.60000000000002L 175.4 237.8M 175.4 237.60000000000002L 175.4 237.4M 175.4 238L 175.20000000000002 238M 175.4 238L 175.4 237.8M 175.4 238.4L 175.4 238M 175.20000000000002 238L 175.4 238M 175.8 238.60000000000002L 175.60000000000002 238.60000000000002M 175.60000000000002 238.60000000000002L 175.4 238.4M 175.8 236.60000000000002L 176.20000000000002 236.4M 176.20000000000002 238.8L 175.8 238.60000000000002M 176.8 236.60000000000002L 176.60000000000002 236.4M 176.4 236.4L 176.20000000000002 236.4M 176.4 236.4L 176.60000000000002 236.4M 176.60000000000002 238.60000000000002L 176.8 238.60000000000002M 176.60000000000002 238.60000000000002L 176.4 238.8M 176.20000000000002 238.8L 176.4 238.8M 177 236.60000000000002L 176.8 236.60000000000002M 177 236.60000000000002L 177.20000000000002 236.60000000000002M 177.20000000000002 238.60000000000002L 176.8 238.60000000000002M 177.4 236.4L 177.20000000000002 236.60000000000002M 177.4 236.4L 177.8 236.4M 177.8 238.8L 177.4 238.60000000000002M 177.20000000000002 238.60000000000002L 177.4 238.60000000000002M 177.8 236.4L 178.20000000000002 236.60000000000002M 178.20000000000002 238.60000000000002L 177.8 238.8M 178.4 236.60000000000002L 178.60000000000002 236.8M 178.20000000000002 236.60000000000002L 178.4 236.60000000000002M 178.60000000000002 236.8L 178.60000000000002 237M 178.8 237L 178.60000000000002 237M 178.8 237.20000000000002L 178.60000000000002 237.4M 178.8 237.20000000000002L 178.8 237M 178.60000000000002 237.8L 178.60000000000002 237.60000000000002M 178.60000000000002 237.60000000000002L 178.60000000000002 237.4M 178.60000000000002 237.8L 178.8 238M 178.8 238.20000000000002L 178.60000000000002 238.4M 178.8 238.20000000000002L 178.8 238M 178.4 238.60000000000002L 178.20000000000002 238.60000000000002M 178.60000000000002 238.4L 178.4 238.60000000000002M 440.8 63.6L 441 63.6M 440.6 63.800000000000004L 440.8 63.6M 440.6 63.800000000000004L 440.6 64M 441 64.2L 440.8 64.2M 440.8 64.2L 440.6 64M 441.40000000000003 63L 441.40000000000003 63.2M 441 63.400000000000006L 441 63.2M 441 63.2L 441.40000000000003 63.2M 441 63.400000000000006L 441 63.6M 441 64.2L 441 64.4M 441.20000000000005 64.60000000000001L 441.40000000000003 64.8M 441.20000000000005 64.60000000000001L 441 64.60000000000001M 441 64.60000000000001L 441 64.4M 441.8 63L 442 62.800000000000004M 441.40000000000003 63L 441.8 63M 441.40000000000003 64.8L 441.6 64.8M 442 64.8L 441.8 64.8M 441.8 64.8L 441.6 64.8M 442.40000000000003 62.800000000000004L 442.20000000000005 62.800000000000004M 442.20000000000005 62.800000000000004L 442 62.800000000000004M 442.40000000000003 64.8L 442.20000000000005 64.8M 442.20000000000005 64.8L 442 64.8M 442.6 63L 442.8 63M 442.40000000000003 62.800000000000004L 442.6 63M 443 63L 442.8 63M 442.8 64.8L 443 64.8M 442.6 64.8L 442.40000000000003 64.8M 442.8 64.8L 442.6 64.8M 443.40000000000003 63.2L 443.40000000000003 63.400000000000006M 443 63L 443.40000000000003 63.2M 443.40000000000003 64.4L 443.20000000000005 64.60000000000001M 443.20000000000005 64.60000000000001L 443 64.60000000000001M 443 64.8L 443 64.60000000000001M 443.6 63.6L 443.8 63.800000000000004M 443.40000000000003 63.400000000000006L 443.6 63.6M 443.8 63.800000000000004L 443.8 64M 443.6 64.2L 443.40000000000003 64.4M 443.8 64L 443.6 64.2M 449.8 57.400000000000006L 450 57.2M 449.6 57.800000000000004L 449.6 57.6M 449.8 57.400000000000006L 449.6 57.6M 449.6 58.2L 449.6 57.800000000000004M 449.6 58.400000000000006L 449.6 58.2M 449.6 58.6L 450 58.800000000000004M 449.6 58.400000000000006L 449.6 58.6M 450 57.2L 450.6 57.2M 450.40000000000003 59L 450.6 59M 450.40000000000003 59L 450.20000000000005 59M 450 58.800000000000004L 450.20000000000005 59M 450.8 57L 451 57M 450.6 57.2L 450.8 57M 451 59L 451 59.2M 451 59L 450.6 59M 451.40000000000003 57L 451.6 57M 451.40000000000003 57L 451.20000000000005 57M 451 57L 451.20000000000005 57M 451.40000000000003 59L 451.6 59M 451.40000000000003 59L 451 59.2M 451.6 57L 451.6 57.2M 452 57.2L 451.6 57.2M 452 59L 451.6 59M 452.20000000000005 57.2L 452.40000000000003 57.400000000000006M 452 57.2L 452.20000000000005 57.2M 452.6 57.6L 452.40000000000003 57.400000000000006M 452.6 58.400000000000006L 452.40000000000003 58.800000000000004M 452.20000000000005 58.800000000000004L 452.40000000000003 58.800000000000004M 452.20000000000005 58.800000000000004L 452 59M 452.6 57.6L 452.6 57.800000000000004M 452.8 58L 452.8 58.2M 452.8 58L 452.6 57.800000000000004M 452.8 58.2L 452.6 58.400000000000006 z" data-zvalue="207478.6157143605" display="block"/><path stroke="rgb(230,0,0)" stroke-width="1" fill="none" d="M 159.60000000000002 244.4L 159.60000000000002 244.20000000000002M 159.60000000000002 244.4L 159.60000000000002 244.60000000000002M 159.60000000000002 244.8L 159.60000000000002 244.60000000000002M 159.4 248.60000000000002L 159.60000000000002 248.4M 159.60000000000002 248.8L 159.4 248.8M 159.4 248.8L 159.4 248.60000000000002M 160.20000000000002 244.20000000000002L 159.8 244.20000000000002M 159.8 244.20000000000002L 159.60000000000002 244.20000000000002M 160 244.8L 160.20000000000002 245M 160 244.8L 159.8 244.8M 159.60000000000002 244.8L 159.8 244.8M 160 248.20000000000002L 160.20000000000002 248.20000000000002M 159.8 248.4L 160 248.20000000000002M 159.8 248.4L 159.60000000000002 248.4M 159.60000000000002 249L 159.8 249M 159.60000000000002 248.8L 159.60000000000002 249M 160.20000000000002 249L 160 249M 160 249L 159.8 249M 160.60000000000002 244.4L 160.4 244.20000000000002M 160.4 244.20000000000002L 160.20000000000002 244.20000000000002M 160.4 244.8L 160.60000000000002 244.8M 160.20000000000002 245L 160.4 244.8M 160.20000000000002 248.20000000000002L 160.4 248.4M 160.60000000000002 248.4L 160.4 248.4M 160.60000000000002 249L 160.60000000000002 248.8M 160.4 249L 160.60000000000002 249M 160.4 249L 160.20000000000002 249M 160.8 244.60000000000002L 160.60000000000002 244.4M 160.8 244.60000000000002L 160.60000000000002 244.8M 160.60000000000002 248.4L 160.8 248.60000000000002M 160.8 248.8L 160.60000000000002 248.8M 160.8 248.60000000000002L 160.8 248.8M 166 244.20000000000002L 166.20000000000002 244.20000000000002M 165.8 244.4L 166 244.20000000000002M 165.8 244.60000000000002L 165.8 244.4M 166.20000000000002 245L 166 244.8M 166 244.8L 165.8 244.60000000000002M 166 248.4L 166.20000000000002 248.20000000000002M 165.8 248.60000000000002L 166 248.4M 166 248.8L 166 249M 166 248.8L 165.8 248.8M 165.8 248.60000000000002L 165.8 248.8M 166.20000000000002 249L 166 249M 166.60000000000002 244.20000000000002L 166.4 244.20000000000002M 166.4 244.20000000000002L 166.20000000000002 244.20000000000002M 166.60000000000002 244.8L 166.4 245M 166.20000000000002 245L 166.4 245M 166.60000000000002 248.20000000000002L 166.20000000000002 248.20000000000002M 166.20000000000002 249L 166.60000000000002 249M 166.8 244.20000000000002L 167 244.4M 166.60000000000002 244.20000000000002L 166.8 244.20000000000002M 167 244.4L 167 244.60000000000002M 166.8 244.8L 166.60000000000002 244.8M 167 244.60000000000002L 166.8 244.8M 166.8 248.20000000000002L 166.8 248.4M 166.60000000000002 248.20000000000002L 166.8 248.20000000000002M 167 248.60000000000002L 167 248.4M 167 248.4L 166.8 248.4M 166.8 249L 167 248.8M 167 248.8L 167 248.60000000000002M 166.8 249L 166.60000000000002 249M 175.60000000000002 237L 175.8 236.8M 175.60000000000002 237.20000000000002L 175.8 237.4M 175.60000000000002 237.20000000000002L 175.60000000000002 237M 175.8 237.4L 175.8 237.8M 175.8 237.8L 175.60000000000002 238M 175.8 238.4L 175.60000000000002 238.20000000000002M 175.60000000000002 238.20000000000002L 175.60000000000002 238M 176 236.8L 176.20000000000002 236.60000000000002M 176 236.8L 175.8 236.8M 176.20000000000002 238.60000000000002L 175.8 238.4M 176.4 236.60000000000002L 176.60000000000002 236.8M 176.20000000000002 236.60000000000002L 176.4 236.60000000000002M 176.8 236.8L 176.60000000000002 236.8M 176.4 238.60000000000002L 176.20000000000002 238.60000000000002M 176.4 238.60000000000002L 176.8 238.4M 176.8 236.8L 177.20000000000002 236.8M 176.8 238.4L 177.20000000000002 238.4M 177.60000000000002 236.60000000000002L 177.8 236.60000000000002M 177.4 236.8L 177.60000000000002 236.60000000000002M 177.4 236.8L 177.20000000000002 236.8M 177.8 238.60000000000002L 177.60000000000002 238.60000000000002M 177.4 238.4L 177.20000000000002 238.4M 177.4 238.4L 177.60000000000002 238.60000000000002M 177.8 236.60000000000002L 178 236.8M 178.20000000000002 237L 178.20000000000002 236.8M 178.20000000000002 236.8L 178 236.8M 178.20000000000002 237.4L 178.20000000000002 237.60000000000002M 178.20000000000002 237.8L 178.20000000000002 237.60000000000002M 178.20000000000002 238.4L 178.20000000000002 238.20000000000002M 178 238.4L 177.8 238.60000000000002M 178.20000000000002 238.4L 178 238.4M 178.20000000000002 237L 178.4 237M 178.4 237.20000000000002L 178.20000000000002 237.4M 178.4 237L 178.4 237.20000000000002M 178.20000000000002 237.8L 178.4 238M 178.4 238.20000000000002L 178.20000000000002 238.20000000000002M 178.4 238L 178.4 238.20000000000002M 441.20000000000005 63.2L 441.40000000000003 63.2M 441.20000000000005 63.400000000000006L 441.20000000000005 63.2M 441 63.800000000000004L 441 63.400000000000006M 441.20000000000005 63.400000000000006L 441 63.400000000000006M 441 64L 441 63.800000000000004M 441 64.4L 441.20000000000005 64.4M 441 64.4L 441 64.2M 441 64L 441 64.2M 441.40000000000003 64.60000000000001L 441.20000000000005 64.60000000000001M 441.20000000000005 64.60000000000001L 441.20000000000005 64.4M 441.6 63.2L 441.40000000000003 63.2M 441.6 63.2L 442 63M 441.8 64.60000000000001L 442 64.8M 441.8 64.60000000000001L 441.6 64.60000000000001M 441.40000000000003 64.60000000000001L 441.6 64.60000000000001M 442 63L 442.40000000000003 63M 442.40000000000003 64.8L 442 64.8M 443 63.2L 442.8 63.2M 442.40000000000003 63L 442.8 63.2M 442.8 64.60000000000001L 443 64.60000000000001M 442.8 64.60000000000001L 442.40000000000003 64.8M 443.20000000000005 63.2L 443.20000000000005 63.400000000000006M 443 63.2L 443.20000000000005 63.2M 443.40000000000003 63.400000000000006L 443.40000000000003 63.800000000000004M 443.40000000000003 63.400000000000006L 443.20000000000005 63.400000000000006M 443.40000000000003 63.800000000000004L 443.40000000000003 64M 443.40000000000003 64L 443.40000000000003 64.4M 443.20000000000005 64.4L 443.40000000000003 64.4M 443.20000000000005 64.60000000000001L 443 64.60000000000001M 443.20000000000005 64.4L 443.20000000000005 64.60000000000001M 449.8 57.6L 450 57.400000000000006M 449.6 57.800000000000004L 449.8 57.6M 449.6 58L 449.6 58.2M 449.6 58L 449.6 57.800000000000004M 449.6 58.400000000000006L 449.8 58.400000000000006M 449.6 58.400000000000006L 449.6 58.2M 450 58.6L 449.8 58.6M 449.8 58.6L 449.8 58.400000000000006M 450.6 57.2L 450.40000000000003 57.2M 450.20000000000005 57.400000000000006L 450 57.400000000000006M 450.20000000000005 57.400000000000006L 450.20000000000005 57.2M 450.20000000000005 57.2L 450.40000000000003 57.2M 450 58.800000000000004L 450.20000000000005 58.800000000000004M 450 58.6L 450 58.800000000000004M 450.6 59L 450.40000000000003 59M 450.40000000000003 59L 450.20000000000005 58.800000000000004M 450.6 57.2L 451 57.2M 450.8 59L 451 59M 450.8 59L 450.6 59M 451.6 57.2L 451.40000000000003 57.2M 451 57.2L 451.40000000000003 57.2M 451.40000000000003 59L 451.6 59M 451.40000000000003 59L 451.20000000000005 59M 451 59L 451.20000000000005 59M 452 57.400000000000006L 451.8 57.2M 451.6 57.2L 451.8 57.2M 451.8 59L 451.6 59M 452 58.800000000000004L 451.8 59M 452 57.400000000000006L 452.20000000000005 57.400000000000006M 452.40000000000003 57.6L 452.40000000000003 57.800000000000004M 452.40000000000003 57.6L 452.20000000000005 57.400000000000006M 452.40000000000003 57.800000000000004L 452.6 58.2M 452.6 58.2L 452.40000000000003 58.400000000000006M 452.40000000000003 58.6L 452.20000000000005 58.800000000000004M 452 58.800000000000004L 452.20000000000005 58.800000000000004M 452.40000000000003 58.6L 452.40000000000003 58.400000000000006 z" data-zvalue="484115.4900001765" display="block"/><path stroke="rgb(230,0,0)" stroke-width="1" fill="none" d="M 441 63.800000000000004L 441.20000000000005 63.6M 441.20000000000005 63.6L 441.40000000000003 63.400000000000006M 441 64L 441 63.800000000000004M 441.40000000000003 64.4L 441.20000000000005 64.2M 441.20000000000005 64.2L 441 64M 442 63.2L 441.8 63.2M 441.6 63.2L 441.40000000000003 63.400000000000006M 441.6 63.2L 441.8 63.2M 442 64.60000000000001L 441.6 64.60000000000001M 441.6 64.60000000000001L 441.40000000000003 64.4M 442 63.2L 442.40000000000003 63.2M 442.20000000000005 64.60000000000001L 442.40000000000003 64.60000000000001M 442.20000000000005 64.60000000000001L 442 64.60000000000001M 443 63.400000000000006L 442.8 63.2M 442.6 63.2L 442.40000000000003 63.2M 442.6 63.2L 442.8 63.2M 443 64.4L 442.6 64.60000000000001M 442.6 64.60000000000001L 442.40000000000003 64.60000000000001M 443.40000000000003 63.800000000000004L 443.20000000000005 63.6M 443.20000000000005 63.6L 443 63.400000000000006M 443.40000000000003 63.800000000000004L 443.40000000000003 64M 443 64.4L 443.20000000000005 64.2M 443.20000000000005 64.2L 443.40000000000003 64M 450 57.800000000000004L 450 57.6M 449.8 57.800000000000004L 450 57.800000000000004M 449.8 58.2L 449.8 58M 449.8 58L 449.8 57.800000000000004M 449.8 58.2L 450 58.400000000000006M 450.40000000000003 57.400000000000006L 450.6 57.2M 450.20000000000005 57.400000000000006L 450.40000000000003 57.400000000000006M 450.20000000000005 57.400000000000006L 450 57.6M 450.20000000000005 58.6L 450.40000000000003 58.800000000000004M 450 58.400000000000006L 450.20000000000005 58.6M 450.6 58.800000000000004L 450.40000000000003 58.800000000000004M 451 57.2L 450.8 57.2M 450.6 57.2L 450.8 57.2M 451 59L 450.8 59M 450.6 58.800000000000004L 450.8 59M 451.6 57.2L 451.40000000000003 57.2M 451.20000000000005 57.2L 451 57.2M 451.20000000000005 57.2L 451.40000000000003 57.2M 451.6 58.800000000000004L 451.40000000000003 59M 451.20000000000005 59L 451 59M 451.20000000000005 59L 451.40000000000003 59M 451.8 57.400000000000006L 452 57.400000000000006M 451.6 57.2L 451.8 57.400000000000006M 452 57.6L 452 57.400000000000006M 452 58.800000000000004L 452 58.6M 451.8 58.800000000000004L 452 58.800000000000004M 451.8 58.800000000000004L 451.6 58.800000000000004M 452.20000000000005 57.6L 452.40000000000003 57.800000000000004M 452 57.6L 452.20000000000005 57.6M 452.40000000000003 57.800000000000004L 452.40000000000003 58M 452.40000000000003 58.2L 452.40000000000003 58M 452.40000000000003 58.2L 452.40000000000003 58.400000000000006M 452.20000000000005 58.400000000000006L 452.40000000000003 58.400000000000006M 452.20000000000005 58.6L 452 58.6M 452.20000000000005 58.400000000000006L 452.20000000000005 58.6 z" data-zvalue="1037389.2385718063" display="block"/><path stroke="rgb(230,0,0)" stroke-width="1" fill="none" d="M 441.40000000000003 63.800000000000004L 441.40000000000003 63.6M 441.40000000000003 63.800000000000004L 441.40000000000003 64M 441.40000000000003 64.2L 441.40000000000003 64M 441.8 63.400000000000006L 442 63.400000000000006M 441.6 63.400000000000006L 441.40000000000003 63.6M 441.8 63.400000000000006L 441.6 63.400000000000006M 441.6 64.4L 441.8 64.4M 441.40000000000003 64.2L 441.6 64.4M 442 64.4L 441.8 64.4M 442.20000000000005 63.400000000000006L 442.40000000000003 63.400000000000006M 442.20000000000005 63.400000000000006L 442 63.400000000000006M 442 64.4L 442.40000000000003 64.4M 442.40000000000003 63.400000000000006L 442.6 63.400000000000006M 443 63.6L 442.8 63.400000000000006M 442.8 63.400000000000006L 442.6 63.400000000000006M 442.8 64.4L 443 64.2M 442.6 64.4L 442.8 64.4M 442.6 64.4L 442.40000000000003 64.4M 443 63.6L 443.20000000000005 63.800000000000004M 443 64L 443 63.800000000000004M 443.20000000000005 63.800000000000004L 443 63.800000000000004M 443 64L 443 64.2M 450.6 57.400000000000006L 450.40000000000003 57.6M 450.20000000000005 57.6L 450 57.800000000000004M 450.20000000000005 57.6L 450.40000000000003 57.6M 450 58.2L 450 57.800000000000004M 450 58.400000000000006L 450.20000000000005 58.400000000000006M 450 58.400000000000006L 450 58.2M 450.6 58.6L 450.20000000000005 58.6M 450.20000000000005 58.6L 450.20000000000005 58.400000000000006M 450.8 57.400000000000006L 451 57.400000000000006M 450.6 57.400000000000006L 450.8 57.400000000000006M 451 58.800000000000004L 450.6 58.800000000000004M 450.6 58.6L 450.6 58.800000000000004M 451.40000000000003 57.400000000000006L 451.6 57.400000000000006M 451.40000000000003 57.400000000000006L 451.20000000000005 57.400000000000006M 451 57.400000000000006L 451.20000000000005 57.400000000000006M 451.40000000000003 58.800000000000004L 451.6 58.800000000000004M 451.40000000000003 58.800000000000004L 451 58.800000000000004M 452 57.800000000000004L 451.8 57.6M 451.8 57.6L 451.6 57.400000000000006M 452 58.6L 451.8 58.6M 451.8 58.6L 451.6 58.6M 451.6 58.800000000000004L 451.6 58.6M 452 58.6L 452 58.400000000000006M 452.20000000000005 58L 452.20000000000005 58.2M 452.20000000000005 58L 452.20000000000005 57.800000000000004M 452 57.800000000000004L 452.20000000000005 57.800000000000004M 452.20000000000005 58.2L 452 58.400000000000006 z" data-zvalue="2143936.735715066" display="block"/><path stroke="rgb(230,0,0)" stroke-width="1" fill="none" d="M 441.8 63.6L 442 63.6M 441.6 63.800000000000004L 441.8 63.6M 441.6 64L 441.6 63.800000000000004M 442 64.2L 441.8 64.2M 441.8 64.2L 441.6 64M 442.40000000000003 63.6L 442.20000000000005 63.6M 442 63.6L 442.20000000000005 63.6M 442.20000000000005 64.2L 442.40000000000003 64.2M 442 64.2L 442.20000000000005 64.2M 442.6 63.6L 442.8 63.800000000000004M 442.40000000000003 63.6L 442.6 63.6M 442.8 63.800000000000004L 442.8 64M 442.6 64.2L 442.40000000000003 64.2M 442.8 64L 442.6 64.2M 450.40000000000003 57.6L 450.6 57.6M 450.20000000000005 57.800000000000004L 450.40000000000003 57.6M 450.20000000000005 58L 450.20000000000005 58.2M 450.20000000000005 57.800000000000004L 450.20000000000005 58M 450.20000000000005 58.2L 450.40000000000003 58.400000000000006M 450.6 58.6L 450.40000000000003 58.400000000000006M 451 57.400000000000006L 451 57.6M 450.6 57.6L 451 57.6M 450.8 58.6L 451 58.6M 450.6 58.6L 450.8 58.6M 451.6 57.6L 451.40000000000003 57.6M 451 57.6L 451 57.400000000000006M 451 57.6L 451.40000000000003 57.6M 451.40000000000003 58.6L 451.6 58.6M 451.40000000000003 58.6L 451.20000000000005 58.6M 451 58.6L 451.20000000000005 58.6M 451.8 57.6L 451.8 57.800000000000004M 451.6 57.6L 451.8 57.6M 452 57.800000000000004L 452 58M 452 58.2L 452 58M 452 57.800000000000004L 451.8 57.800000000000004M 452 58.2L 451.8 58.400000000000006M 451.8 58.400000000000006L 451.6 58.6 z" data-zvalue="4357031.7300015865" display="block"/><path stroke="rgb(230,0,0)" stroke-width="1" fill="none" d="M 450.40000000000003 58L 450.6 58M 450.40000000000003 58.2L 450.40000000000003 58M 450.6 58.2L 450.40000000000003 58.2M 450.8 57.6L 451 57.6M 450.6 57.800000000000004L 450.8 57.6M 450.6 57.800000000000004L 450.6 58M 450.6 58.400000000000006L 451 58.400000000000006M 450.6 58.2L 450.6 58.400000000000006M 451.40000000000003 57.800000000000004L 451.6 57.800000000000004M 451.40000000000003 57.800000000000004L 451.20000000000005 57.6M 451 57.6L 451.20000000000005 57.6M 451.40000000000003 58.400000000000006L 451.6 58.400000000000006M 451.20000000000005 58.400000000000006L 451.40000000000003 58.400000000000006M 451.20000000000005 58.400000000000006L 451 58.400000000000006M 451.6 58L 451.8 58.2M 451.6 58L 451.6 57.800000000000004M 451.6 58.2L 451.6 58.400000000000006M 451.8 58.2L 451.6 58.2 z" data-zvalue="8783221.718574626" display="block"/></g><circle fill="black" r="3" display="none"/><g/><rect fill="white"/><text/></g><g clip-path="url(#_clipploteaf871d7-7f6b-470d-b64a-4d365f09c7b8)"><g/><g><path stroke="rgb(51,255,255)" stroke-width="1" fill="none" d="" data-zvalue="-8783221.718574626" display="block"/><path stroke="rgb(51,255,255)" stroke-width="1" fill="none" d="" data-zvalue="-4357031.7300015865" display="block"/><path stroke="rgb(51,255,255)" stroke-width="1" fill="none" d="" data-zvalue="-2143936.735715066" display="block"/><path stroke="rgb(51,255,255)" stroke-width="1" fill="none" d="" data-zvalue="-1037389.2385718063" display="block"/><path stroke="rgb(51,255,255)" stroke-width="1" fill="none" d="" data-zvalue="-484115.4900001765" display="block"/><path stroke="rgb(51,255,255)" stroke-width="1" fill="none" d="" data-zvalue="-207478.6157143605" display="block"/><path stroke="rgb(51,255,255)" stroke-width="1" fill="none" d="" data-zvalue="-69160.1785714535" display="block"/><path stroke="rgb(51,255,255)" stroke-width="1" fill="none" d="" data-zvalue="-0.96" display="block"/></g><circle fill="black" r="3" display="none"/><g/><rect fill="white"/><text/></g></g><g><g clip-path="url(#_clipploteaf871d7-7f6b-470d-b64a-4d365f09c7b8)"><rect data-label-i="0" display="initial"/><text data-label-i="0" display="initial"/></g><g clip-path="url(#_clipploteaf871d7-7f6b-470d-b64a-4d365f09c7b8)"><rect data-label-i="0" display="initial"/><text data-label-i="0" display="initial"/></g><g clip-path="url(#_clipploteaf871d7-7f6b-470d-b64a-4d365f09c7b8)"><rect data-label-i="0" display="initial"/><text data-label-i="0" display="initial"/></g><g clip-path="url(#_clipploteaf871d7-7f6b-470d-b64a-4d365f09c7b8)"><rect data-label-i="0" display="initial"/><text data-label-i="0" display="initial"/></g><g clip-path="url(#_clipploteaf871d7-7f6b-470d-b64a-4d365f09c7b8)"><rect fill="rgba(0,255,0,0.2)" stroke="rgb(0,128,0)" stroke-width="1px" width="7.233092761566581" height="4.737595262404682" x="162.89702573140943" y="246.389132010868"/></g><g clip-path="url(#_clipploteaf871d7-7f6b-470d-b64a-4d365f09c7b8)"><rect fill="rgba(0,255,0,0.2)" stroke="rgb(0,128,0)" stroke-width="1px" width="7.233092761566581" height="4.737595262404682" x="162.89702573140943" y="242.26065613934387"/></g><g clip-path="url(#_clipploteaf871d7-7f6b-470d-b64a-4d365f09c7b8)"><rect fill="rgba(0,255,0,0.2)" stroke="rgb(0,128,0)" stroke-width="1px" width="7.233092761566581" height="4.737595262404682" x="156.59390203918707" y="242.26065613934387"/></g><g clip-path="url(#_clipploteaf871d7-7f6b-470d-b64a-4d365f09c7b8)"><rect fill="rgba(0,255,0,0.2)" stroke="rgb(0,128,0)" stroke-width="1px" width="7.233092761566581" height="4.737595262404682" x="156.59390203918707" y="246.389132010868"/></g><g clip-path="url(#_clipploteaf871d7-7f6b-470d-b64a-4d365f09c7b8)"><rect fill="rgba(0,255,0,0.2)" stroke="rgb(0,128,0)" stroke-width="1px" width="8.783041210473698" height="5.752794247205713" x="172.71336590782136" y="234.81586358413642"/></g><g clip-path="url(#_clipploteaf871d7-7f6b-470d-b64a-4d365f09c7b8)"><rect fill="rgba(0,255,0,0.2)" stroke="rgb(0,128,0)" stroke-width="1px" width="7.233092761566638" height="4.737595262404739" x="447.57089084735446" y="55.80244259755741"/></g><g clip-path="url(#_clipploteaf871d7-7f6b-470d-b64a-4d365f09c7b8)"><rect fill="rgba(0,255,0,0.2)" stroke="rgb(0,128,0)" stroke-width="1px" width="7.233092761566638" height="4.7375952624047315" x="438.6845197402869" y="61.622916777083226"/></g></g></g></g><line stroke="black" shape-rendering="crispEdges" stroke-linecap="square" display="none"/><line stroke="black" shape-rendering="crispEdges" stroke-linecap="square" display="none"/><line stroke="black" shape-rendering="crispEdges" stroke-linecap="square" display="none"/><line stroke="black" shape-rendering="crispEdges" stroke-linecap="square" display="none"/></g><g><rect display="none" fill="rgba(171,12,12,0.2)" stroke="rgba(171,12,12,1)" shape-rendering="crispEdges" x="0" y="0" height="0" width="0" pointer-events="none"/></g></g></svg>